<?xml version="1.0" encoding="UTF-8" standalone="no"?>
<svg version="1.2" viewBox="0 0 300 100" width="300" height="100" id="svg7" sodipodiDocname="chera_logo_300x100_margin.svg" inkscapeExportFilename="../../../chera_logo_300x100_margin.png" inkscapeExportXdpi="96" inkscapeExportYdpi="96" inkscapeVersion="1.2 (dc2aeda, 2022-05-15)"
   xmlnsInkscape="http://www.inkscape.org/namespaces/inkscape"
   xmlnsSodipodi="http://sodipodi.sourceforge.net/DTD/sodipodi-0.dtd"
   xmlns="http://www.w3.org/2000/svg"
   xmlnsSvg="http://www.w3.org/2000/svg"
   xmlnsRdf="http://www.w3.org/1999/02/22-rdf-syntax-ns#"
   xmlnsCc="http://creativecommons.org/ns#"
   xmlnsDc="http://purl.org/dc/elements/1.1/">
   <defs id="defs11" />
   <sodipodiNamedview id="namedview9" pagecolor="#ffffff" bordercolor="#000000" borderopacity="0.25" inkscapeShowpageshadow="2" inkscapePageopacity="0.0" inkscapePagecheckerboard="0" inkscapeDeskcolor="#d1d1d1" showgrid="false" inkscapeZoom="4.1533333" inkscapeCx="150.36116" inkscapeCy="11.797753" inkscapeWindowWidth="1920" inkscapeWindowHeight="1080" inkscapeWindowX="0" inkscapeWindowY="0" inkscapeWindowMaximized="0" inkscapeCurrentLayer="svg7" />
   <title id="title2">chera_logo_300x100</title>
   <style id="style4">
		.s0 { fill: #d4218d } 
   </style>
   <path id="Chera" class="s0" aria-label="Chera" d="m 61.340676,28.684149 c 5.122905,0 6.692828,4.519262 6.692828,9.189166 0,1.355778 -0.33051,2.862199 -0.66102,4.293298 1.239413,0.67789 3.222473,0.903853 4.627141,0.903853 5.866553,0 9.089026,-3.690731 9.089026,-7.908708 0,-5.724398 -5.783926,-12.352649 -18.673818,-12.352649 -18.26068,0 -26.358176,12.277328 -26.358176,28.923275 0,15.817415 6.775456,28.396027 25.697156,28.396027 9.089026,0 19.004328,-3.992014 19.004328,-12.277327 0,-2.485594 -1.074158,-4.293299 -3.552983,-5.347793 -2.313571,4.971187 -6.527574,7.908708 -12.394127,7.908708 -10.741576,0 -12.807264,-9.867055 -12.807264,-20.562641 0,-7.607424 1.074157,-21.165209 9.336909,-21.165209 z m 40.817994,0.67789 v -9.49045 L 88.442499,21.227368 V 78.320706 H 102.15867 V 54.669904 c 0,-6.025682 0.49576,-13.407143 7.10596,-13.407143 5.37079,0 5.7013,4.895867 5.7013,9.791734 v 19.884751 c 0,5.649077 3.3051,8.586597 9.41954,8.586597 2.3962,0 5.61867,-0.677889 7.02334,-2.334952 -2.14832,-1.807705 -2.80934,-4.142657 -2.80934,-7.004856 v -19.80943 c 0,-9.867054 -3.63561,-15.290168 -14.37719,-15.290168 -5.45341,0 -10.24581,1.883025 -12.88989,6.101003 0.5784,-2.786878 0.82628,-7.758066 0.82628,-11.825401 z m 69.9855,36.229414 c -2.23094,4.142656 -6.77545,6.477608 -11.89836,6.477608 -7.5191,0 -9.41954,-5.799719 -9.83267,-12.50329 1.15678,0.150642 3.47035,0.225963 4.70976,0.225963 11.48523,0 21.07002,-2.334952 21.07002,-12.804575 0,-8.209992 -7.68436,-11.900722 -16.77339,-11.900722 -15.28608,0 -23.21833,8.81256 -23.21833,22.74695 0,13.407143 7.1886,22.295024 21.81367,22.295024 7.68436,0 16.44287,-3.540088 16.44287,-10.544944 0,-1.657062 -0.57839,-3.238804 -2.31357,-3.992014 z m -14.04668,-25.68447 c 4.04875,0 5.45342,3.615409 5.45342,7.306139 0,6.55293 -4.214,8.661918 -11.4026,8.586597 h -1.73517 c 0.0826,-6.176324 1.15678,-15.892736 7.68435,-15.892736 z m 43.79259,1.883025 c 3.3051,0 4.214,2.93752 4.214,5.950361 0,1.280458 -0.16526,2.93752 -0.66102,4.217978 0.99153,0.677889 3.13984,0.903852 4.29663,0.903852 5.53604,0 8.51063,-2.862199 8.51063,-7.908708 0,-6.176324 -4.29663,-9.867054 -11.07208,-9.867054 -5.78393,0 -10.32844,3.012841 -12.22888,7.984029 l -0.57839,-7.381461 -11.23734,0.979173 V 78.320706 H 196.8498 V 54.745225 c 0,-5.12183 0.0826,-12.955217 5.04028,-12.955217 z m 46.84979,33.291894 c 1.07416,2.711557 3.96613,4.443941 8.42801,4.443941 2.3962,0 5.37079,-0.677889 6.77546,-2.334952 -2.23095,-1.807705 -2.80934,-4.142657 -2.80934,-7.004856 V 49.020827 c 0,-9.942376 -8.51063,-13.93439 -19.16958,-13.93439 -9.83267,0 -19.25221,3.540088 -19.25221,10.168338 0,4.293299 3.88349,6.251646 8.51063,6.251646 1.15679,0 3.22248,-0.301284 4.21401,-0.828532 -0.33051,-1.129815 -0.49577,-2.485593 -0.49577,-3.69073 0,-3.841372 1.90043,-7.456782 6.77546,-7.456782 4.95765,0 5.70129,3.464768 5.70129,7.908708 v 7.155498 c -12.47675,0 -27.3497,1.807704 -27.3497,13.030538 0,7.833386 6.77545,12.50329 15.45134,12.50329 5.20554,0 9.58479,-1.129815 13.2204,-5.046509 z m -8.09749,-0.602568 c -4.29663,0 -6.44495,-3.088162 -6.44495,-7.004856 0,-6.778892 5.86656,-8.81256 13.2204,-8.81256 v 6.854214 c 0,4.44394 -1.73517,8.963202 -6.77545,8.963202 z" style="stroke-width:0.788897" />
   <metadata id="metadata198">
      <rdfRDF>
         <ccWork rdfAbout="">
            <dcTitle>chera_logo_300x100</dcTitle>
         </ccWork>
      </rdfRDF>
   </metadata>
</svg>
