<?xml version="1.0" encoding="UTF-8" standalone="no"?>
<svg version="1.2" viewBox="0 0 300 100" width="300" height="100" id="svg7" sodipodiDocname="chera_logo_300x100_margin.svg" inkscapeExportFilename="../../../chera_logo_300x100_margin.png" inkscapeExportXdpi="96" inkscapeExportYdpi="96" inkscapeVersion="1.2 (dc2aeda, 2022-05-15)"
   xmlnsInkscape="http://www.inkscape.org/namespaces/inkscape"
   xmlnsSodipodi="http://sodipodi.sourceforge.net/DTD/sodipodi-0.dtd"
   xmlnsSvg="http://www.w3.org/2000/svg"
   xmlnsRdf="http://www.w3.org/1999/02/22-rdf-syntax-ns#"
   xmlnsCc="http://creativecommons.org/ns#"
   xmlnsDc="http://purl.org/dc/elements/1.1/" sodipodiDocname="chera_logo_150x100_margin.svg" inkscapeVersion="1.2 (dc2aeda, 2022-05-15)">

   <sodipodiNamedview id="namedview135" pagecolor="#ffffff" bordercolor="#000000" borderopacity="0.25" inkscapeShowpageshadow="2" inkscapePageopacity="0.0" inkscapePagecheckerboard="0" inkscapeDeskcolor="#d1d1d1" showgrid="false"/>
   <defs id="defs11" />
   <sodipodiNamedview id="namedview9" pagecolor="#ffffff" bordercolor="#000000" borderopacity="0.25" inkscapeShowpageshadow="2" inkscapePageopacity="0.0" inkscapePagecheckerboard="0" inkscapeDeskcolor="#d1d1d1" showgrid="false" inkscapeZoom="4.1533333" inkscapeCx="150.36116" inkscapeCy="11.797753" inkscapeWindowWidth="1920" inkscapeWindowHeight="1080" inkscapeWindowX="0" inkscapeWindowY="0" inkscapeWindowMaximized="0" inkscapeCurrentLayer="svg7" />
   <title id="title2">chera_logo_300x100</title>
   <style id="style4">
		.s0 { fill: #d4218d } 
   </style>
   <path id="Chera" class="s0" aria-label="Chera" d="m 82.885184,31.665189 c 3.878022,0 5.066449,3.887239 5.066449,7.904053 0,1.166171 -0.250195,2.461918 -0.50039,3.692877 0.938232,0.583086 2.439401,0.777448 3.502731,0.777448 4.440961,0 6.880363,-3.174579 6.880363,-6.802668 0,-4.923837 -4.378415,-10.625121 -14.13602,-10.625121 -13.823275,0 -19.953053,10.560333 -19.953053,24.878331 0,13.605336 5.128998,24.424819 19.452663,24.424819 6.880363,0 14.386215,-3.433728 14.386215,-10.560333 0,-2.137981 -0.813134,-3.692877 -2.689597,-4.599899 -1.751366,4.275962 -4.941353,6.802668 -9.382314,6.802668 -8.131338,0 -9.695057,-8.487139 -9.695057,-17.686938 0,-6.54352 0.813134,-18.205237 7.06801,-18.205237 z m 30.899086,0.583086 v -8.163203 l -10.38309,1.166172 v 49.108788 h 10.38309 V 54.016814 c 0,-5.182985 0.37529,-11.532143 5.37919,-11.532143 4.06567,0 4.31587,4.211176 4.31587,8.422352 v 17.103852 c 0,4.859049 2.50195,7.385755 7.13056,7.385755 1.81392,0 4.25332,-0.583086 5.31665,-2.008407 -1.62628,-1.554896 -2.12667,-3.563303 -2.12667,-6.025222 V 50.323937 c 0,-8.487139 -2.75214,-13.151826 -10.88348,-13.151826 -4.12822,0 -7.75605,1.619683 -9.75761,5.247773 0.43785,-2.397131 0.62549,-6.673094 0.62549,-10.171609 z m 52.9788,31.162701 c -1.68881,3.563302 -5.12899,5.571709 -9.00702,5.571709 -5.69193,0 -7.13056,-4.988624 -7.4433,-10.754695 0.87568,0.129575 2.62705,0.194362 3.56527,0.194362 8.69429,0 15.94994,-2.008407 15.94994,-11.013845 0,-7.061817 -5.81703,-10.236396 -12.6974,-10.236396 -11.57151,0 -17.5762,7.580116 -17.5762,19.565771 0,11.532142 5.44175,19.177046 16.51288,19.177046 5.81703,0 12.4472,-3.045004 12.4472,-9.070225 0,-1.42532 -0.43784,-2.785854 -1.75137,-3.433727 z M 156.12978,41.3185 c 3.06489,0 4.12822,3.109791 4.12822,6.284369 0,5.636498 -3.18998,7.450542 -8.63173,7.385755 h -1.31352 c 0.0625,-5.31256 0.87568,-13.670124 5.81703,-13.670124 z m 33.15085,1.619682 c 2.50195,0 3.18998,2.526706 3.18998,5.118198 0,1.101385 -0.1251,2.526706 -0.50039,3.628091 0.75059,0.583085 2.37685,0.777447 3.25254,0.777447 4.19076,0 6.44252,-2.461918 6.44252,-6.802668 0,-5.31256 -3.25254,-8.487139 -8.38153,-8.487139 -4.37842,0 -7.8186,2.591493 -9.25722,6.867456 l -0.43784,-6.349157 -8.50663,0.842234 v 35.827388 h 10.38309 v -20.27843 c 0,-4.405538 0.0625,-11.14342 3.81548,-11.14342 z m 35.46514,28.635995 c 0.81313,2.332344 3.00234,3.822453 6.37997,3.822453 1.81392,0 4.06567,-0.583086 5.129,-2.008407 -1.68882,-1.554896 -2.12666,-3.563303 -2.12666,-6.025222 V 49.157765 c 0,-8.551926 -6.44252,-11.985654 -14.51131,-11.985654 -7.4433,0 -14.57386,3.045004 -14.57386,8.746288 0,3.692877 2.93979,5.377348 6.44252,5.377348 0.87569,0 2.43941,-0.259149 3.18999,-0.712661 -0.25019,-0.97181 -0.37529,-2.137981 -0.37529,-3.174579 0,-3.304153 1.43862,-6.413944 5.129,-6.413944 3.75292,0 4.31586,2.980217 4.31586,6.802668 v 6.154796 c -9.44486,0 -20.70364,1.554895 -20.70364,11.208206 0,6.737881 5.129,10.754695 11.69662,10.754695 3.94057,0 7.25565,-0.971809 10.0078,-4.340751 z m -6.12978,-0.518298 c -3.25253,0 -4.8788,-2.65628 -4.8788,-6.025221 0,-5.830858 4.44096,-7.580116 10.0078,-7.580116 v 5.895646 c 0,3.822452 -1.31352,7.709691 -5.129,7.709691 z" style="stroke-width:0.636582" />

</svg>
